<?xml version="1.0" encoding="UTF-8"?>
<svg xmlns="http://www.w3.org/2000/svg" id="Layer_3" data-name="Layer 3" viewBox="0 0 64 64" width="512" height="512"><rect x="19" y="41" width="18" height="2"/><rect x="39" y="41" width="6" height="2"/><rect x="19" y="53" width="18" height="2"/><rect x="39" y="53" width="6" height="2"/><path d="M53.707,11.707l3.274-3.274A3.947,3.947,0,0,0,59,9a4,4,0,1,0-4-4,3.947,3.947,0,0,0,.567,2.019L52.586,10H47.7a6.958,6.958,0,0,0-7.657-4.931,9.982,9.982,0,0,0-16.084,0A6.951,6.951,0,0,0,16.3,10H11.414L8.433,7.019A3.947,3.947,0,0,0,9,5,4,4,0,1,0,5,9a3.947,3.947,0,0,0,2.019-.567l3.274,3.274A1,1,0,0,0,11,12h4.7a9.947,9.947,0,0,0-3.87,14.752L7.019,31.567A3.947,3.947,0,0,0,5,31a4,4,0,1,0,4,4,3.947,3.947,0,0,0-.567-2.019l4.716-4.716A9.957,9.957,0,0,0,20,31h1a1,1,0,0,0,.293.707L25,35.414V37H16a1,1,0,0,0-1,1v8a1,1,0,0,0,1,1h1v2H16a1,1,0,0,0-1,1v8a1,1,0,0,0,1,1h1v3a1,1,0,0,0,1,1H46a1,1,0,0,0,1-1V59h1a1,1,0,0,0,1-1V50a1,1,0,0,0-1-1H47V47h1a1,1,0,0,0,1-1V38a1,1,0,0,0-1-1H41V35.236l1.9-3.789A1,1,0,0,0,43,31h1a9.957,9.957,0,0,0,6.851-2.735l4.716,4.716A3.95,3.95,0,0,0,55,35a4,4,0,1,0,4-4,3.957,3.957,0,0,0-2.019.567l-4.815-4.815A9.947,9.947,0,0,0,48.3,12H53A1,1,0,0,0,53.707,11.707ZM59,3a2,2,0,1,1-2,2A2,2,0,0,1,59,3ZM3,5A2,2,0,1,1,5,7,2,2,0,0,1,3,5ZM5,37a2,2,0,1,1,2-2A2,2,0,0,1,5,37ZM45,61H19V59H45Zm2-4H17V51H47Zm-2-8H19V47H45Zm2-4H17V39H47ZM41,30.764l-1.9,3.789A1,1,0,0,0,39,35v2H27V35a1,1,0,0,0-.293-.707L23,30.586V26a1,1,0,0,1,1-1h1v4h2V13a1,1,0,0,1,2,0V27h2V19h2v8h2V19h2v8h2V19h1a1,1,0,0,1,1,1ZM61,35a2,2,0,1,1-2-2A2,2,0,0,1,61,35ZM52,21a8.009,8.009,0,0,1-8,8H43V20a3,3,0,0,0-3-3H31V13a3,3,0,0,0-6,0V23H24a3,3,0,0,0-3,3v3H20a7.995,7.995,0,0,1-2.643-15.542,1,1,0,0,0,.665-1.03C18.011,12.286,18,12.145,18,12a4.981,4.981,0,0,1,6.178-4.854,1,1,0,0,0,1.077-.435,7.985,7.985,0,0,1,13.49,0,1,1,0,0,0,1.077.435A4.981,4.981,0,0,1,46,12c0,.145-.011.286-.022.428a1,1,0,0,0,.665,1.03A8.006,8.006,0,0,1,52,21Z"/></svg>
