<svg clip-rule="evenodd" fill-rule="evenodd" height="1.707in" image-rendering="optimizeQuality" shape-rendering="geometricPrecision" text-rendering="geometricPrecision" viewBox="0 0 1707 1707" width="1.707in" xmlns="http://www.w3.org/2000/svg"><g id="Layer_x0020_1"><path d="m829 746h-205c-30 0-54-24-54-54v-103c0-11 9-20 20-20h273c11 0 20 9 20 20v103c0 30-24 54-54 54zm-219-137v83c0 8 6 14 14 14h205c7 0 14-6 14-14v-83z"/><path d="m741 830h-29c-33 0-60-27-60-60v-44c0-11 9-20 20-20s20 9 20 20v44c0 11 9 20 20 20h29c11 0 19-9 19-20v-44c0-11 9-20 20-20s20 9 20 20v44c0 33-26 60-59 60z"/><path d="m681 609c-11 0-20-9-20-20v-291l-56-69c-7-9-6-21 3-28 8-7 21-6 28 3l60 74c3 4 5 8 5 13v298c0 11-9 20-20 20z"/><path d="m772 609c-11 0-20-9-20-20v-298c0-5 1-9 4-13l61-74c7-9 19-10 28-3s10 19 3 28l-56 69v291c0 11-9 20-20 20z"/><path d="m863 609c-11 0-20-9-20-20 0-112 37-151 69-187 27-29 50-54 50-126 0-130-106-236-236-236s-236 106-236 236c0 72 24 97 51 126 32 35 69 75 69 187 0 12-9 20-20 20s-20-8-20-20c0-96-29-127-59-159-30-33-61-66-61-154 0-152 124-276 276-276s276 124 276 276c0 87-31 121-61 154-30 32-58 63-58 159 0 11-9 20-20 20z"/><path d="m863 677h-273c-11 0-20-8-20-20 0-11 9-20 20-20l273 1c11 0 20 8 20 20 0 11-9 19-20 19z"/><path d="m601 1707h-443c-11 0-20-9-20-20v-211c0-46 37-83 83-83h102c5 0 10 2 13 5 24 21 63 21 87 0 4-3 9-5 14-5h102c45 0 82 37 82 83v211c0 11-8 20-20 20zm-423-40h403v-191c0-24-19-43-42-43h-95c-19 14-41 21-64 21s-46-7-64-21h-95c-24 0-43 19-43 43z"/><path d="m380 1377c-58 0-106-47-106-105 0-59 48-106 106-106s105 47 105 106c0 58-47 105-105 105zm0-171c-36 0-66 30-66 66s30 65 66 65 65-29 65-65-29-66-65-66z"/><path d="m256 1707c-11 0-20-9-20-20v-84c0-11 9-20 20-20s20 9 20 20v84c0 11-9 20-20 20z"/><path d="m503 1707c-11 0-20-9-20-20v-84c0-11 9-20 20-20s20 9 20 20v84c0 11-9 20-20 20z"/><path d="m1548 1520h-541c-11 0-20-9-20-20v-258c0-53 43-96 97-96h124c5 0 10 1 14 5 15 13 35 21 56 21 20 0 40-8 56-21 3-4 8-5 13-5h125c53 0 97 43 97 96v258c-1 11-10 20-21 20zm-521-40h501v-238c0-31-25-56-56-56h-118c-22 17-49 26-76 26-28 0-55-9-77-26h-117c-32 0-57 25-57 56z"/><path d="m1278 1117c-69 0-125-55-125-124s56-125 125-125c68 0 124 56 124 125s-56 124-124 124zm0-209c-47 0-85 38-85 85 0 46 38 84 85 84 46 0 84-38 84-84 0-47-38-85-84-85z"/><path d="m1127 1520c-11 0-20-9-20-20v-102c0-11 9-20 20-20s20 9 20 20v102c0 11-9 20-20 20z"/><path d="m1428 1520c-11 0-20-9-20-20v-102c0-11 9-20 20-20s20 9 20 20v102c0 11-8 20-20 20z"/><path d="m642 1304c-7 0-13-4-17-10-5-10-2-22 7-28l269-155c10-5 22-2 28 7 5 10 2 22-8 28l-269 155c-3 2-6 3-10 3z"/><path d="m880 1246c-3 0-5-1-7-1-10-4-16-15-13-25l25-77-78-16c-11-2-18-13-15-24 2-11 13-17 23-15l100 21c6 1 11 5 14 10 2 4 3 10 1 16l-31 97c-3 8-11 14-19 14z"/><path d="m726 1000c-1 0-2 0-4-1l-317-62c-10-2-17-11-17-20v-377c0-6 3-11 8-15 4-4 10-5 16-4l181 36c11 2 18 12 16 23s-13 18-23 16l-158-31v336l278 54v-145c0-11 9-20 20-20s20 9 20 20v170c0 6-2 11-7 15-4 3-8 5-13 5z"/><path d="m726 1000c-9 0-18-7-19-16-2-11 4-22 15-24l302-59v-336l-157 31c-11 2-22-5-24-16s5-21 16-23l181-36c6-2 12 0 17 4 4 4 7 9 7 15v377c0 10-7 18-16 20l-318 62c-1 1-2 1-4 1z"/></g></svg>