<svg id="Layer_1" enable-background="new 0 0 512 512" viewBox="0 0 512 512" xmlns="http://www.w3.org/2000/svg"><path d="m491 360.41h-48.78v-48.4c0-3.31-2.69-6-6-6h-134.17l-40.05-25.94v-20.91h9.98c5.68 0 10.48-3.88 11.67-9.43l4.51-20.96c3.35-1.17 6.67-2.55 9.93-4.12l18.01 11.64c4.77 3.08 10.91 2.43 14.92-1.58l22.61-22.6c4.01-4.02 4.67-10.15 1.58-14.92l-11.64-18.02c1.54-3.21 2.92-6.53 4.12-9.93l20.96-4.5c5.55-1.19 9.43-5.99 9.43-11.67v-31.97c0-5.68-3.88-10.48-9.43-11.67l-20.96-4.51c-1.18-3.35-2.55-6.67-4.12-9.93l11.64-18.01c3.08-4.77 2.43-10.91-1.59-14.92l-22.6-22.6c-4.02-4.02-10.15-4.67-14.92-1.58l-18.02 11.64c-3.21-1.55-6.53-2.93-9.93-4.12l-4.5-20.95c-1.19-5.55-5.99-9.43-11.67-9.43h-31.97c-5.68 0-10.48 3.88-11.67 9.43l-4.51 20.96c-3.34 1.17-6.66 2.55-9.93 4.12l-18-11.66c-4.77-3.08-10.91-2.43-14.92 1.58l-22.6 22.6c-4.02 4.02-4.67 10.15-1.58 14.92l11.64 18.02c-1.55 3.21-2.93 6.53-4.12 9.93l-20.96 4.5c-5.55 1.19-9.43 5.99-9.43 11.67v31.97c0 5.68 3.88 10.48 9.43 11.67l20.96 4.51c1.17 3.35 2.55 6.67 4.12 9.93l-11.64 18.01c-3.08 4.77-2.43 10.91 1.58 14.92l22.6 22.6c4.02 4.02 10.15 4.67 14.92 1.58l18.02-11.64c3.21 1.55 6.53 2.93 9.93 4.12l4.5 20.96c1.19 5.55 5.99 9.43 11.67 9.43h9.98v20.91l-40.05 25.95h-134.17c-3.31 0-6 2.69-6 6v48.4h-48.78c-3.31 0-6 2.69-6 6v70.9c0 3.31 2.69 6 6 6h109.55c3.31 0 6-2.69 6-6v-70.9c0-3.31-2.69-6-6-6h-48.77v-42.4h128.17l40.05 25.95v52.64c-24.96 2.98-44.39 24.26-44.39 50.02 0 27.78 22.6 50.39 50.39 50.39s50.39-22.6 50.39-50.39c0-25.75-19.42-47.04-44.39-50.02v-52.64l40.05-25.94h128.17v42.4h-48.77c-3.31 0-6 2.69-6 6v70.9c0 3.31 2.69 6 6 6h109.55c3.31 0 6-2.69 6-6v-70.9c0-3.33-2.69-6.01-6-6.01zm-255.43-134.2c-.88-4.1-3.77-7.37-7.72-8.76-2.96-1.04-5.91-2.26-8.75-3.63-3.78-1.82-8.14-1.55-11.67.73l-18 11.63-22.53-22.53 11.63-18c2.28-3.52 2.55-7.89.73-11.66-1.37-2.84-2.59-5.79-3.63-8.75-1.39-3.95-4.66-6.84-8.76-7.72l-20.94-4.5v-31.87l20.94-4.5c4.1-.88 7.37-3.77 8.76-7.72 1.04-2.96 2.26-5.91 3.63-8.75 1.82-3.78 1.55-8.14-.73-11.67l-11.63-18 22.53-22.53 18 11.63c3.52 2.28 7.88 2.55 11.66.73 2.85-1.37 5.79-2.59 8.75-3.63 3.95-1.39 6.84-4.66 7.72-8.76l4.5-20.95h31.86l4.5 20.94c.88 4.1 3.77 7.37 7.72 8.76 2.96 1.04 5.91 2.26 8.75 3.63 3.78 1.82 8.14 1.55 11.67-.73l18-11.63 22.53 22.53-11.63 18c-2.28 3.52-2.55 7.89-.73 11.66 1.37 2.84 2.59 5.79 3.63 8.75 1.39 3.95 4.66 6.84 8.76 7.72l20.94 4.5v31.87l-20.94 4.5c-4.1.88-7.37 3.77-8.76 7.72-1.04 2.97-2.26 5.91-3.63 8.75-1.82 3.78-1.55 8.14.73 11.67l11.63 18-22.53 22.53-18-11.63c-3.53-2.28-7.89-2.55-11.66-.73-2.84 1.37-5.79 2.59-8.75 3.63-3.95 1.39-6.84 4.66-7.72 8.76l-4.5 20.94h-31.86zm-111.02 205.1h-97.55v-58.9h97.55zm169.84 15.3c0 21.17-17.22 38.39-38.39 38.39s-38.39-17.22-38.39-38.39 17.22-38.39 38.39-38.39 38.39 17.23 38.39 38.39zm-38.39-113.07-33.24-21.53 33.24-21.53 33.24 21.53zm229 97.77h-97.55v-58.9h97.55zm-162.44-294.23c0-36.7-29.86-66.56-66.56-66.56s-66.56 29.86-66.56 66.56 29.86 66.56 66.56 66.56 66.56-29.86 66.56-66.56zm-74.38 53.99v-25.75c0-2.32-1.33-4.43-3.43-5.42-9-4.28-14.82-13.48-14.82-23.44 0-8.29 3.88-15.84 10.19-20.64v20.64c0 3.31 2.69 6 6 6h19.52c3.31 0 6-2.69 6-6v-20.64c6.31 4.8 10.19 12.35 10.19 20.64 0 9.97-5.81 19.16-14.81 23.42-2.1.99-3.43 3.1-3.43 5.42v25.8c-2.48.35-5 .54-7.58.54-2.67 0-5.28-.2-7.83-.57zm27.4-3.08v-19.12c11.2-6.81 18.25-19.14 18.25-32.41 0-16.56-10.59-31.09-26.35-36.14-1.83-.59-3.82-.26-5.37.87s-2.46 2.93-2.46 4.85v24.43h-7.52v-24.43c0-1.92-.92-3.72-2.46-4.85-1.55-1.13-3.54-1.45-5.37-.87-15.76 5.05-26.35 19.58-26.35 36.14 0 13.27 7.05 25.61 18.25 32.43v19.01c-20.31-7.95-34.74-27.72-34.74-50.82 0-30.09 24.48-54.56 54.56-54.56s54.56 24.48 54.56 54.56c-.02 23.18-14.56 43.03-35 50.91z"/></svg>